<?xml version="1.0" encoding="utf-8"?>
<!-- Generator: Adobe Illustrator 24.3.0, SVG Export Plug-In . SVG Version: 6.00 Build 0)  -->
<svg version="1.1" id="Layer_1" xmlns="http://www.w3.org/2000/svg" xmlns:xlink="http://www.w3.org/1999/xlink" x="0px" y="0px"
	 viewBox="0 0 172 184.4" style="enable-background:new 0 0 172 184.4;" xml:space="preserve">
<style type="text/css">
	.st0{fill:#FFFFFF;}
	.st1{fill:#FFFFFF;stroke:#231F20;stroke-miterlimit:10;}
	.st2{fill:#68BD46;}
</style>
<polygon class="st0" points="9.5,9.7 3,180.3 168.2,180.6 162.8,10.3 "/>
<path class="st1" d="M24.5,173.3"/>
<polygon class="st2" points="42.7,168.2 42.4,95.8 33.1,95.4 33,70.4 82.1,70.6 82.3,167.9 "/>
<polygon class="st2" points="100.2,167.9 99.7,70.6 147,70.4 147.4,94.2 138.9,94.8 139.6,168 125.4,168.2 "/>
<g>
	<path class="st2" d="M99.8,67.3c0.9,1.5,15.2-4.3,23.9-17c5.1-7.3,5.2-12.4,5.1-14.5c-0.1-2.1-0.2-6.6-3.2-9
		c-5.5-4.7-16,1.2-16.6,1.6c-7.5,4.4-10.6,12.2-12.6,17.4c-3.6,9.4-3.8,18.5-2.7,18.7c1.2,0.3,2.1-12.8,12.5-22.7
		c2.8-2.7,8.6-6,10.2-4.7c1.9,1.5-0.9,10.3-1.7,11.9C108.4,61.5,99.1,66.2,99.8,67.3z"/>
	<path class="st2" d="M84.5,66.2c-0.6,1.5-17.9,0.1-31.6-11.6c-9.3-8-11.7-16.1-12.3-19.3s-1.7-8.1,0.7-12.2c4.3-7,15.4-6.3,17.3-6
		c12.3,0.8,19.8,10.3,22,13C90.9,43,89.8,63.6,89,61.7c-1.2-2.6-7.4-18.3-15.9-25.9c-4.6-4.3-12.6-6.1-16-3.4
		c-2.4,1.9-2.1,8.4,0.4,12.6C66.5,59.3,85.1,64.5,84.5,66.2z"/>
</g>
<polygon class="st2" points="86.1,167.8 85.6,71.6 94.4,71.6 94.6,167.9 "/>
</svg>
