<?xml version="1.0" encoding="utf-8"?>
<!-- Generator: Adobe Illustrator 24.3.0, SVG Export Plug-In . SVG Version: 6.00 Build 0)  -->
<svg version="1.1" id="Layer_1" xmlns="http://www.w3.org/2000/svg" xmlns:xlink="http://www.w3.org/1999/xlink" x="0px" y="0px"
	 viewBox="0 0 243.3 42.9" style="enable-background:new 0 0 243.3 42.9;" xml:space="preserve">
<style type="text/css">
	.st0{enable-background:new    ;}
	.st1{fill:#224689;}
	.st2{fill:#61BB46;}
</style>
<g class="st0" id="animatedGroup">
	<path class="st1" d="M60.7,29.4c0,0.4-0.2,0.6-0.7,0.6c-0.6,0-1.6-0.1-2.8-0.3c-1.3-0.2-2.2-0.3-2.8-0.4c-2.5,1.3-4.8,1.9-7,1.9
		c-3.9,0-7.2-1.4-9.9-4.1c-2.8-2.7-4.1-6-4.1-9.9s1.4-7.3,4.1-10s6.1-4.1,10-4.1c1.9,0,3.8,0.4,5.8,1.3c2.2,0.9,3.8,2.1,4.8,3.5
		c0.2,0.3,0.4,0.6,0.4,0.9c0,0.4-0.7,1.3-2.1,2.9c-1.3,1.5-2.2,2.3-2.7,2.6c-0.3,0.2-0.5,0.2-0.8,0.2c-0.2,0-0.8-0.3-1.8-0.9
		s-2-0.9-3.2-0.9s-2.2,0.4-3.1,1.3s-1.3,1.9-1.3,3.2s0.4,2.3,1.3,3.2c0.9,0.9,1.9,1.4,3.2,1.4c0.8,0,1.6-0.2,2.2-0.5
		c0-0.3-0.1-1.2-0.3-2.7c-0.1-1.1-0.2-2-0.2-2.7c0-0.1,0-0.3,0.1-0.4s0.2-0.1,0.4-0.1c0.1,0,0.4,0,1,0.1c0.9,0.1,2.1,0.2,3.7,0.2
		c0.6,0,1.4,0,2.5-0.1s1.9-0.1,2.5-0.1c0.4,0,0.6,0.2,0.6,0.5c0,0.7-0.1,1.7-0.2,3.1c-0.1,1.4-0.2,2.4-0.2,3.1c0,0.8,0.1,2,0.2,3.6
		S60.7,28.7,60.7,29.4z"/>
	<path class="st1" d="M73.3,12.2c0,0.1,0,0.3,0,0.5c-0.4,4.8-0.7,7.8-0.7,9c0,0.8,0,2.1,0.1,3.8c0,1.7,0.1,3,0.1,3.8
		c0,0.4,0,0.7,0,0.7c-0.1,0.2-0.3,0.3-0.6,0.3c-0.4,0-1.1,0-2-0.1c-0.9,0-1.5-0.1-2-0.1c-0.4,0-1.1,0-2,0.1s-1.5,0.1-2,0.1
		c-0.3,0-0.5-0.1-0.6-0.3c0-0.1,0-0.3,0-0.7c0-0.9,0-2.1,0.1-3.8s0.1-3,0.1-3.8c0-1.9-0.2-4.9-0.6-9c0-0.2-0.1-0.4-0.1-0.5
		c0-0.3,0.2-0.5,0.6-0.5c0.5,0,1.3,0.1,2.3,0.2c1,0.2,1.8,0.2,2.3,0.2s1.3-0.1,2.3-0.2c1-0.2,1.8-0.2,2.3-0.2
		C73.1,11.7,73.3,11.9,73.3,12.2z M73.1,7.4c0,2.7-1.6,4-4.9,4c-1.4,0-2.5-0.3-3.4-1c-1-0.7-1.5-1.7-1.5-3s0.5-2.3,1.5-3
		c0.9-0.7,2-1.1,3.3-1.1s2.4,0.4,3.3,1.1C72.6,5.1,73.1,6.1,73.1,7.4z"/>
	<path class="st1" d="M89.6,19.3c0,0.4-0.2,0.6-0.7,0.6c-1.1,0-2,0-2.7-0.1v2.9c0,0.8,0,2,0.1,3.5c0.1,1.6,0.1,2.8,0.1,3.5
		c0,0.5-0.2,0.8-0.7,0.8c-0.4,0-1.1,0-2-0.1c-0.9,0-1.5-0.1-2-0.1c-0.4,0-1.1,0-1.9,0c-0.9,0-1.5,0-1.9,0c-0.5,0-0.7-0.3-0.7-1v-9.1
		c0-0.3-0.1-0.5-0.4-0.6c0.2,0-0.1,0-0.7,0c-0.4,0-0.7-0.2-0.8-0.5c-0.2-0.8-0.2-3-0.2-6.8c0-0.4,0.2-0.7,0.6-0.8
		c0.1,0,0.5-0.1,1.1-0.2c-0.1-1-0.1-1.7-0.1-2.2c0-2.7,1.3-4.6,3.8-5.8c1.6-0.7,4.1-1.1,7.3-1.3H88c0.2,0,0.3,0.1,0.4,0.3
		c0.6,4,0.9,6,0.9,6.2c0,0.4-0.4,0.6-1.2,0.7c-0.9,0.1-1.4,0.2-1.6,0.3c-0.2,0.2-0.3,0.7-0.3,1.5v0.2c0.3,0,0.7,0,1.4,0
		c0.6,0,1.1,0,1.4,0c0.5,0,0.7,0.2,0.7,0.6s0,0.9,0,1.6s0,1.2,0,1.6s0,1.1,0.1,1.9C89.5,18.2,89.6,18.9,89.6,19.3z"/>
	<path class="st1" d="M105.5,23.2c0,0.5-0.1,1.3-0.2,2.4s-0.2,1.9-0.2,2.4s-0.1,0.8-0.2,0.9c-0.1,0.1-0.4,0.3-0.8,0.6
		c-1.5,0.8-3.4,1.2-5.6,1.2c-4.3,0-6.5-1.4-6.5-4.2c0-0.7,0-1.7,0.1-3c0.1-1.4,0.1-2.4,0.1-3c0-0.5-0.3-0.8-0.9-0.8
		s-0.9-0.2-0.9-0.6c0-0.3,0-0.7,0.1-1.3c0-0.6,0.1-1,0.1-1.3s0-0.8-0.1-1.5s-0.1-1.1-0.1-1.4s0.3-0.5,0.8-0.7S92,12.4,92,12V9.6
		c0-1.8,0-2.5,0-2.2c0.1-1.2,0.2-1.8,0.6-1.8c0.3,0,0.9,0.1,1.9,0.3s1.7,0.4,2.1,0.4c0.2,0,0.9,0.1,2,0.3c0.8,0.1,1.5,0.2,2,0.2
		c0.4,0,0.5,0.1,0.5,0.4c0,0.5,0,1.1-0.1,2.1c-0.1,0.9-0.1,1.6-0.1,2.1c0,0.4,0.2,0.6,0.6,0.6s1,0,1.8-0.1c0.8,0,1.4-0.1,1.8-0.1
		c0.3,0,0.5,0.1,0.5,0.4c0,0.4,0,1-0.1,1.8s-0.1,1.4-0.1,1.8c0,0.4,0,1,0,1.8s0,1.4,0,1.8c0,0.3-0.2,0.5-0.6,0.5s-0.9,0-1.7,0
		c-0.7,0-1.3,0-1.7,0s-0.6,0.2-0.6,0.6c0,1.1,0.5,1.9,1.6,2.2c0.6,0.2,1.6,0.4,2.9,0.4C105.4,23,105.5,23,105.5,23.2z"/>
</g>
<g class="st0">
	<path class="st2" d="M132,8.5c0,0.1-0.5,0.4-1.6,1.3s-1.6,1.6-1.6,2.5c0,0.6,0.5,1.8,1.5,3.6c1,1.8,1.5,3.4,1.5,4.8
		c0,1.7-0.4,3.3-1.1,4.6c-0.8,1.4-2.3,2.8-4.5,4.2c-1.9,1.2-3.7,2-5.6,2.7c-0.2,0-0.3,0.1-0.4,0.1c-0.2,0-0.3-0.1-0.4-0.4
		c-0.1-0.2-0.8-1.6-2.2-4.3c-1.3-2.6-1.9-3.7-1.9-3.8c0-0.1,0.4-0.4,1.3-1c1-0.6,1.8-1.2,2.3-1.8c0.8-0.9,1.3-1.8,1.3-2.7
		s-0.3-1.7-0.8-2.6c-1-1.6-1.5-2.3-1.6-2.3c-0.6-1.1-0.8-2.3-0.8-3.8c0-2.6,1.1-4.6,3.3-6.3c1.8-1.4,4-2.2,6.6-2.6
		c0.5-0.1,0.7-0.1,0.6-0.1c0.1,0,0.2,0.1,0.3,0.4c0.6,1.5,1.9,4,4,7.5C132,8.4,132,8.5,132,8.5z"/>
	<path class="st2" d="M149.4,22.9c0,0.5-0.1,1.3-0.2,2.4c-0.1,1.1-0.2,1.9-0.2,2.4s-0.1,0.8-0.2,0.9c-0.1,0.1-0.4,0.3-0.8,0.6
		c-1.5,0.8-3.4,1.2-5.6,1.2c-4.3,0-6.5-1.4-6.5-4.2c0-0.7,0-1.7,0.1-3s0.1-2.4,0.1-3c0-0.5-0.3-0.8-0.9-0.8c-0.6,0-0.9-0.2-0.9-0.6
		c0-0.3,0-0.7,0.1-1.3c0-0.6,0.1-1,0.1-1.3c0-0.3,0-0.8-0.1-1.5s-0.1-1.1-0.1-1.4s0.3-0.5,0.8-0.7s0.8-0.4,0.8-0.8V9.4
		c0-1.8,0-2.5,0-2.2c0-1.2,0.2-1.8,0.6-1.8c0.3,0,0.9,0.1,1.9,0.3s1.7,0.4,2.1,0.4c0.2,0,0.9,0.1,2,0.3c0.8,0.1,1.5,0.2,2,0.2
		c0.4,0,0.5,0.1,0.5,0.4c0,0.5,0,1.1-0.1,2.1c-0.1,0.9-0.1,1.6-0.1,2.1c0,0.4,0.2,0.6,0.6,0.6c0.4,0,1,0,1.8-0.1
		c0.8,0,1.4-0.1,1.8-0.1c0.3,0,0.5,0.1,0.5,0.4c0,0.4,0,1-0.1,1.8s-0.1,1.4-0.1,1.8s0,1,0,1.8s0,1.4,0,1.8c0,0.3-0.2,0.5-0.6,0.5
		c-0.4,0-0.9,0-1.7,0c-0.7,0-1.3,0-1.7,0s-0.6,0.2-0.6,0.6c0,1.1,0.5,1.9,1.6,2.2c0.6,0.2,1.6,0.4,2.9,0.4
		C149.3,22.7,149.4,22.7,149.4,22.9z"/>
	<path class="st2" d="M170.7,20.6c0,2.9-0.9,5.3-2.8,7.2c-1.9,1.9-4.3,2.8-7.2,2.8c-2.8,0-5.2-0.9-7.1-2.8c-1.9-1.8-2.9-4.2-2.9-7
		c0-3,0.9-5.4,2.8-7.3c1.9-2,4.3-2.9,7.2-2.9s5.3,0.9,7.2,2.8C169.8,15.3,170.7,17.7,170.7,20.6z M162.5,20.6c0-0.5-0.2-0.9-0.5-1.3
		c-0.3-0.3-0.8-0.5-1.2-0.5s-0.9,0.2-1.2,0.5s-0.5,0.8-0.5,1.3s0.2,0.9,0.5,1.3c0.3,0.3,0.8,0.5,1.2,0.5c0.5,0,0.9-0.2,1.3-0.5
		C162.3,21.5,162.5,21.1,162.5,20.6z"/>
	<path class="st2" d="M187.1,12.2c0,0.5,0,1.2-0.1,2.1s-0.1,1.7-0.1,2.2c0,0.5,0,1.2,0.1,2.1s0.1,1.6,0.1,2.1c0,0.6-0.6,0.8-1.7,0.8
		c-0.3,0-0.6,0-1,0s-0.7,0-0.8,0c-0.9,0-1.4,0.4-1.4,1.1s0,1.9,0.1,3.4c0.1,1.5,0.1,2.6,0.1,3.4c0,0.6-0.3,1-0.8,1
		c-0.4,0-1,0-1.8-0.1c-0.8,0-1.4-0.1-1.8-0.1c-0.4,0-1.1,0-1.9,0s-1.5,0-1.9,0c-0.5,0-0.8-0.3-0.8-0.8v-8.9c0-2.8-0.3-5.1-0.8-7.1
		c0-0.1-0.1-0.3-0.1-0.4c0-0.3,0.1-0.4,0.3-0.5c0.3-0.1,1-0.2,2-0.3c1.2-0.1,1.9-0.2,2.2-0.2c2.6-0.5,4-0.8,4.1-0.8
		c0.3,0,0.4,0.4,0.5,1.3c0.1,0.8,0.2,1.3,0.4,1.3c-0.1,0,0.4-0.3,1.5-1s2.3-1,3.4-1C186.9,11.6,187.1,11.8,187.1,12.2z"/>
	<path class="st2" d="M207.9,20c0,1.3-0.4,2.1-1.2,2.3c-0.3,0.1-1.9,0.3-4.9,0.6l-4.4,0.5c0.2,0.4,0.6,0.8,1.3,1
		c0.5,0.2,1.1,0.3,1.7,0.3c0.6,0,1.3-0.2,2.3-0.5s1.5-0.5,1.6-0.5c0.2,0,0.4,0.1,0.5,0.3c0.2,0.4,0.5,1.1,0.9,1.9c0,0,0.2,0.4,0.7,1
		c0.4,0.6,0.6,0.9,0.6,1s-0.1,0.3-0.2,0.4c-1.4,1.4-3.8,2-7.3,2c-3.3,0-5.9-0.8-7.7-2.3c-2-1.7-3-4.1-3-7.3c0-2.9,1-5.3,2.9-7.3
		s4.3-2.9,7.2-2.9c2.5,0,4.7,0.9,6.4,2.8S207.9,17.5,207.9,20z M200.3,18.7c0-0.4-0.1-0.7-0.4-1.1c-0.3-0.3-0.6-0.5-1-0.5
		s-0.9,0.2-1.2,0.5c-0.4,0.3-0.6,0.7-0.6,1.1c0,0.3,0.2,0.4,0.6,0.4c0.2,0,0.6,0,1-0.1c0.5-0.1,0.8-0.1,1-0.1
		C200.1,18.9,200.3,18.8,200.3,18.7z"/>
</g>
</svg>
